<svg width="154" height="196" viewBox="0 0 154 196" fill="none" xmlns="http://www.w3.org/2000/svg">
<path d="M140.615 195.77H3.89575L16.5926 14.1658H153.317L140.615 195.77Z" fill="#A7ABF2"/>
<g opacity="0.1">
<path d="M140.615 195.77H3.89575L16.5926 14.1658H153.317L140.615 195.77Z" fill="black"/>
</g>
<path d="M137.267 195.77H0.542236L13.2445 14.1658H149.964L137.267 195.77Z" fill="#A7ABF2"/>
<path d="M131.044 185.019L10.2498 186.557L19.6039 22.9546L140.403 21.4164L131.044 185.019Z" fill="#EBEBEB"/>
<path d="M128.081 187.079L7.59717 184.475L22.566 20.9001L143.05 23.4982L128.081 187.079Z" fill="#DBDBDB"/>
<path d="M129.951 185.796H9.25513L20.6964 22.1829H141.393L129.951 185.796Z" fill="white"/>
<path d="M45.8672 73.7857H33.8171L34.6596 61.7357H46.7097L45.8672 73.7857Z" fill="#EBEBEB"/>
<path d="M92.1323 63.5021H53.0906L53.2156 61.7357H92.2573L92.1323 63.5021Z" fill="#263238"/>
<path d="M121.537 66.9263H52.8516L52.9766 65.1599H121.657L121.537 66.9263Z" fill="#EBEBEB"/>
<path d="M121.293 70.3559H52.6123L52.7373 68.5895H121.418L121.293 70.3559Z" fill="#EBEBEB"/>
<path d="M121.054 73.7856H52.3733L52.4983 72.0191H121.179L121.054 73.7856Z" fill="#EBEBEB"/>
<path d="M35.1704 67.1599C35.5889 67.5295 35.9857 67.9208 36.377 68.3068C36.7684 68.6927 37.1434 69.1003 37.5293 69.4971C38.2848 70.3015 39.0077 71.1277 39.7034 71.9593L38.312 72.0517C39.5724 69.7689 40.9795 67.5702 42.5244 65.4695C43.3016 64.4151 44.1115 63.3878 44.9702 62.3877C45.8351 61.3757 46.7608 60.4173 47.7422 59.5179C47.2919 60.7575 46.7581 61.9651 46.1443 63.1324C45.5518 64.2955 44.905 65.4261 44.2202 66.5349C42.8539 68.7601 41.3432 70.8935 39.698 72.9213L38.8718 73.9323L38.3283 73.0083C37.7848 72.068 37.1978 71.1222 36.6977 70.1493C36.4368 69.6547 36.1542 69.1764 35.9205 68.6763C35.6868 68.1763 35.3933 67.6491 35.1704 67.1599Z" fill="#A7ABF2"/>
<path d="M44.291 96.3149H32.241L33.0834 84.2648H45.1335L44.291 96.3149Z" fill="#EBEBEB"/>
<path d="M90.5561 86.0313H51.5144L51.6394 84.2648H90.6811L90.5561 86.0313Z" fill="#263238"/>
<path d="M119.961 89.4611H51.2754L51.4004 87.6946H120.081L119.961 89.4611Z" fill="#EBEBEB"/>
<path d="M119.722 92.8906H51.0359L51.1609 91.1241H119.841L119.722 92.8906Z" fill="#EBEBEB"/>
<path d="M119.483 96.315H50.7969L50.9219 94.554H119.602L119.483 96.315Z" fill="#EBEBEB"/>
<path d="M33.5942 89.6676C34.0128 90.0372 34.4095 90.4231 34.8009 90.8144C35.1922 91.2058 35.5672 91.608 35.9532 92.0048C36.7087 92.8092 37.4316 93.6354 38.1273 94.467L36.7413 94.5539C37.999 92.2696 39.4062 90.0707 40.9536 87.9718C41.7254 86.9228 42.5353 85.8955 43.3941 84.8954C44.2575 83.8821 45.1833 82.9236 46.1661 82.0256C45.7133 83.2633 45.1813 84.4706 44.5735 85.64C43.9756 86.8032 43.3289 87.9337 42.644 89.0425C41.2815 91.2646 39.7764 93.3961 38.1381 95.4236L37.312 96.4345L36.7684 95.5105C36.1923 94.5702 35.6325 93.6191 35.1052 92.6461C34.8444 92.157 34.5617 91.6732 34.328 91.1786C34.0943 90.684 33.8171 90.1839 33.5942 89.6676Z" fill="#A7ABF2"/>
<path d="M42.7148 118.85H30.6648L31.5073 106.8H43.5573L42.7148 118.85Z" fill="#EBEBEB"/>
<path d="M88.9799 108.566H49.9382L50.0632 106.8H89.105L88.9799 108.566Z" fill="#263238"/>
<path d="M118.385 111.996H49.699L49.824 110.229H118.51L118.385 111.996Z" fill="#EBEBEB"/>
<path d="M118.146 115.42H49.46L49.585 113.659H118.271L118.146 115.42Z" fill="#EBEBEB"/>
<path d="M117.907 118.85H49.2209L49.346 117.083H118.026L117.907 118.85Z" fill="#EBEBEB"/>
<path d="M32.0181 112.202C32.4366 112.572 32.8334 112.958 33.2247 113.349C33.616 113.741 33.9911 114.143 34.377 114.54C35.1325 115.339 35.8554 116.17 36.5511 117.002L35.1651 117.089C36.4283 114.805 37.8391 112.607 39.3883 110.507C40.1601 109.458 40.97 108.425 41.8288 107.43C42.6922 106.417 43.618 105.459 44.6008 104.56C44.149 105.797 43.617 107.002 43.0082 108.169C42.4103 109.333 41.7635 110.469 41.0787 111.577C39.7143 113.802 38.2035 115.934 36.5565 117.958L35.7304 118.969L35.1868 118.051C34.6107 117.111 34.0509 116.159 33.5236 115.186C33.2682 114.697 32.9801 114.214 32.7464 113.713C32.5127 113.213 32.2409 112.719 32.0181 112.202Z" fill="#A7ABF2"/>
<path d="M41.1384 141.384H29.0884L29.9309 129.334H41.9809L41.1384 141.384Z" fill="#EBEBEB"/>
<path d="M87.4035 131.101H48.3618L48.4868 129.334H87.5286L87.4035 131.101Z" fill="#263238"/>
<path d="M116.809 134.525H48.1228L48.2478 132.758H116.934L116.809 134.525Z" fill="#EBEBEB"/>
<path d="M116.57 137.955H47.8838L48.0088 136.188H116.695L116.57 137.955Z" fill="#EBEBEB"/>
<path d="M116.33 141.384H47.6445L47.7695 139.618H116.455L116.33 141.384Z" fill="#EBEBEB"/>
<path d="M39.562 163.914H27.512L28.3544 151.869H40.4045L39.562 163.914Z" fill="#EBEBEB"/>
<path d="M85.8275 153.63H46.7913L46.9108 151.869H85.9526L85.8275 153.63Z" fill="#263238"/>
<path d="M115.232 157.06H46.552L46.6716 155.293H115.357L115.232 157.06Z" fill="#EBEBEB"/>
<path d="M114.993 160.489H46.3074L46.4324 158.723H115.118L114.993 160.489Z" fill="#EBEBEB"/>
<path d="M114.754 163.914H46.0681L46.1931 162.147H114.879L114.754 163.914Z" fill="#EBEBEB"/>
<path d="M58.586 41.3098C59.2834 41.3049 59.9612 41.5411 60.5046 41.9783C60.5275 41.9969 60.5464 42.0197 60.5604 42.0456C60.5744 42.0715 60.5832 42.0999 60.5862 42.1292C60.5893 42.1584 60.5865 42.188 60.5781 42.2162C60.5697 42.2444 60.5558 42.2707 60.5372 42.2936C60.5187 42.3164 60.4958 42.3354 60.4699 42.3494C60.444 42.3634 60.4156 42.3721 60.3864 42.3751C60.3571 42.3782 60.3275 42.3754 60.2993 42.367C60.2711 42.3586 60.2448 42.3447 60.222 42.3262C59.7514 41.941 59.1615 41.7315 58.5534 41.7337C57.8191 41.7337 57.1115 42.0088 56.5702 42.5048C56.0288 43.0009 55.6931 43.6819 55.6292 44.4133C55.6054 44.7592 55.6545 45.1062 55.7732 45.4319C55.8919 45.7577 56.0777 46.0549 56.3184 46.3043C56.5592 46.5538 56.8496 46.75 57.1709 46.8802C57.4922 47.0104 57.8373 47.0718 58.1838 47.0603C58.8103 47.0638 59.4196 46.855 59.9122 46.4679C59.9343 46.4496 59.9601 46.4363 59.9878 46.4288C60.0155 46.4213 60.0445 46.4198 60.0728 46.4244C60.1011 46.429 60.1281 46.4397 60.1519 46.4556C60.1758 46.4716 60.196 46.4924 60.2111 46.5168C60.2298 46.539 60.2435 46.5649 60.2515 46.5928C60.2594 46.6207 60.2614 46.65 60.2573 46.6787C60.2532 46.7074 60.2431 46.7349 60.2276 46.7595C60.2122 46.784 60.1918 46.805 60.1676 46.8212C59.5832 47.2512 58.8768 47.4835 58.1511 47.4843C57.7499 47.4967 57.3506 47.4248 56.9789 47.2732C56.6072 47.1216 56.2714 46.8938 55.9933 46.6044C55.7152 46.315 55.5008 45.9704 55.3641 45.593C55.2274 45.2156 55.1715 44.8137 55.1998 44.4133C55.2769 43.5674 55.6666 42.7807 56.2928 42.2068C56.9189 41.6328 57.7366 41.313 58.586 41.3098Z" fill="#263238"/>
<path d="M65.717 44.647H62.5863L62.4015 47.2777C62.3948 47.3349 62.3672 47.3875 62.3241 47.4257C62.281 47.4638 62.2253 47.4846 62.1677 47.4842C62.1413 47.4843 62.1152 47.4789 62.091 47.4684C62.0668 47.4578 62.045 47.4423 62.0271 47.4229C62.0092 47.4035 61.9956 47.3805 61.987 47.3555C61.9785 47.3305 61.9752 47.304 61.9775 47.2777L62.3743 41.6033C62.3784 41.547 62.4037 41.4944 62.4451 41.4561C62.4864 41.4178 62.5408 41.3966 62.5971 41.3967C62.6245 41.395 62.6518 41.3993 62.6773 41.4092C62.7028 41.419 62.7259 41.4343 62.745 41.4539C62.7641 41.4735 62.7788 41.497 62.7879 41.5228C62.7971 41.5485 62.8006 41.576 62.7982 41.6033L62.6134 44.2285H65.7496L65.929 41.6033C65.9354 41.5479 65.9614 41.4967 66.0022 41.4588C66.0431 41.421 66.0961 41.3989 66.1518 41.3967C66.1793 41.3951 66.2069 41.3994 66.2327 41.4092C66.2585 41.419 66.2819 41.4342 66.3014 41.4537C66.3209 41.4732 66.336 41.4966 66.3458 41.5224C66.3557 41.5482 66.3599 41.5757 66.3584 41.6033L65.9616 47.2777C65.9538 47.3344 65.9259 47.3864 65.883 47.4243C65.8401 47.4622 65.7851 47.4835 65.7279 47.4842C65.7012 47.4843 65.6749 47.4789 65.6504 47.4684C65.6259 47.4579 65.6038 47.4425 65.5855 47.4231C65.5672 47.4038 65.553 47.3809 65.5438 47.3559C65.5347 47.3309 65.5307 47.3043 65.5322 47.2777L65.717 44.647Z" fill="#263238"/>
<path d="M68.5376 41.6141C68.543 41.5583 68.5686 41.5064 68.6097 41.4683C68.6508 41.4302 68.7045 41.4086 68.7605 41.4075H71.8912C71.9183 41.4057 71.9455 41.4099 71.9708 41.4198C71.9961 41.4297 72.0189 41.4451 72.0376 41.4648C72.0562 41.4845 72.0704 41.5081 72.0789 41.5339C72.0874 41.5597 72.0901 41.5871 72.0869 41.6141C72.0841 41.6718 72.0596 41.7263 72.0183 41.7666C71.9769 41.807 71.9218 41.8301 71.864 41.8315H68.9507L68.7822 44.2393H71.3314C71.3585 44.2399 71.3853 44.2461 71.4099 44.2576C71.4345 44.2691 71.4565 44.2856 71.4744 44.3061C71.4923 44.3265 71.5057 44.3505 71.5139 44.3764C71.522 44.4024 71.5246 44.4297 71.5216 44.4567C71.5175 44.5135 71.4925 44.5666 71.4512 44.6059C71.41 44.6451 71.3556 44.6675 71.2987 44.6687H68.7387L68.5702 47.0711H71.489C71.5164 47.0708 71.5436 47.0765 71.5687 47.0877C71.5937 47.0989 71.616 47.1154 71.6341 47.136C71.6522 47.1567 71.6656 47.181 71.6734 47.2073C71.6811 47.2336 71.6831 47.2613 71.6792 47.2885C71.6751 47.3447 71.6498 47.3973 71.6085 47.4356C71.5671 47.474 71.5128 47.4952 71.4564 47.495H68.3093C68.2584 47.4909 68.2111 47.4669 68.1776 47.4283C68.144 47.3897 68.127 47.3395 68.13 47.2885L68.5376 41.6141Z" fill="#263238"/>
<path d="M76.6147 41.3097C77.3118 41.3067 77.989 41.5426 78.5333 41.9783C78.5537 41.998 78.5699 42.0217 78.581 42.0478C78.592 42.074 78.5977 42.1021 78.5977 42.1304C78.5977 42.1588 78.592 42.1869 78.581 42.2131C78.5699 42.2392 78.5537 42.2629 78.5333 42.2826C78.5172 42.3059 78.4964 42.3256 78.4723 42.3406C78.4482 42.3555 78.4213 42.3653 78.3933 42.3694C78.3653 42.3734 78.3367 42.3717 78.3093 42.3643C78.282 42.3568 78.2565 42.3438 78.2344 42.3261C77.7664 41.9401 77.1778 41.7305 76.5712 41.7337C75.8367 41.7347 75.1291 42.0101 74.5872 42.5058C74.0452 43.0015 73.708 43.6818 73.6416 44.4133C73.6194 44.7592 73.6698 45.106 73.7895 45.4313C73.9092 45.7567 74.0955 46.0535 74.3365 46.3027C74.5775 46.5518 74.8678 46.7479 75.189 46.8784C75.5102 47.0089 75.8551 47.0708 76.2016 47.0603C76.8281 47.0638 77.4374 46.855 77.93 46.4678C77.9521 46.4495 77.9779 46.4362 78.0056 46.4287C78.0333 46.4212 78.0623 46.4197 78.0906 46.4244C78.1189 46.429 78.1459 46.4396 78.1698 46.4556C78.1936 46.4715 78.2138 46.4924 78.2289 46.5167C78.2473 46.5393 78.2607 46.5655 78.2683 46.5936C78.2758 46.6217 78.2773 46.6511 78.2727 46.6799C78.2681 46.7086 78.2574 46.7361 78.2414 46.7604C78.2255 46.7847 78.2045 46.8054 78.18 46.8211C77.598 47.2518 76.893 47.4842 76.169 47.4842C75.7678 47.4966 75.3684 47.4247 74.9967 47.2732C74.625 47.1216 74.2893 46.8938 74.0111 46.6043C73.733 46.3149 73.5186 45.9704 73.382 45.593C73.2453 45.2156 73.1893 44.8137 73.2176 44.4133C73.2937 43.5651 73.6845 42.7761 74.3133 42.2016C74.942 41.6272 75.763 41.309 76.6147 41.3097Z" fill="#263238"/>
<path d="M80.3976 41.6141C80.4004 41.5564 80.4249 41.5019 80.4662 41.4615C80.5076 41.4212 80.5627 41.398 80.6205 41.3967C80.6488 41.3958 80.6769 41.401 80.7031 41.4117C80.7293 41.4225 80.7529 41.4387 80.7724 41.4592C80.7919 41.4797 80.8068 41.5041 80.8162 41.5308C80.8257 41.5575 80.8293 41.5859 80.827 41.6141L80.577 45.1362L84.5176 41.4565C84.5577 41.4198 84.61 41.3995 84.6643 41.3995C84.7187 41.3995 84.771 41.4198 84.8111 41.4565C84.8315 41.4762 84.8477 41.4999 84.8588 41.526C84.8698 41.5522 84.8755 41.5803 84.8755 41.6087C84.8755 41.6371 84.8698 41.6652 84.8588 41.6913C84.8477 41.7174 84.8315 41.7411 84.8111 41.7609L82.3163 44.0926L84.4904 47.1201C84.5194 47.1693 84.5293 47.2275 84.5183 47.2836C84.5073 47.3397 84.4761 47.3898 84.4306 47.4244C84.39 47.455 84.34 47.4704 84.2893 47.4679C84.2595 47.4699 84.2296 47.4639 84.2029 47.4505C84.1762 47.4371 84.1534 47.4169 84.1371 47.3918L81.963 44.397L80.5281 45.7395L80.4248 47.2614C80.4181 47.3185 80.3906 47.3712 80.3474 47.4093C80.3043 47.4474 80.2487 47.4683 80.1911 47.4679C80.1645 47.468 80.1381 47.4626 80.1136 47.4521C80.0891 47.4415 80.0671 47.4262 80.0487 47.4068C80.0304 47.3875 80.0162 47.3646 80.0071 47.3396C79.9979 47.3146 79.9939 47.288 79.9954 47.2614L80.3976 41.6141Z" fill="#263238"/>
<path d="M86.4308 47.4842C86.4042 47.4843 86.3778 47.4789 86.3533 47.4684C86.3289 47.4578 86.3068 47.4425 86.2885 47.4231C86.2702 47.4038 86.256 47.3809 86.2468 47.3559C86.2377 47.3309 86.2337 47.3043 86.2352 47.2777L86.6319 41.6032C86.6385 41.547 86.6653 41.495 86.7073 41.4571C86.7493 41.4191 86.8036 41.3976 86.8602 41.3967C86.8873 41.3959 86.9143 41.4007 86.9394 41.4109C86.9645 41.4211 86.9872 41.4364 87.0062 41.4558C87.0251 41.4752 87.0397 41.4983 87.0492 41.5237C87.0587 41.5491 87.0628 41.5762 87.0613 41.6032L86.6809 47.0385H89.5942C89.6223 47.0376 89.6502 47.0427 89.6762 47.0535C89.7021 47.0643 89.7254 47.0806 89.7445 47.1012C89.7636 47.1218 89.778 47.1463 89.7867 47.173C89.7955 47.1997 89.7984 47.228 89.7953 47.2559C89.7886 47.3131 89.761 47.3658 89.7179 47.4039C89.6748 47.442 89.6191 47.4629 89.5616 47.4625L86.4308 47.4842Z" fill="#263238"/>
<path d="M91.6158 41.6142C91.6223 41.5589 91.6483 41.5077 91.6891 41.4698C91.73 41.4319 91.783 41.4099 91.8387 41.4077C91.8662 41.4061 91.8938 41.4104 91.9195 41.4202C91.9453 41.43 91.9687 41.4452 91.9882 41.4647C92.0077 41.4842 92.0229 41.5076 92.0327 41.5333C92.0425 41.5591 92.0468 41.5867 92.0452 41.6142L91.6484 47.2887C91.6418 47.3458 91.6142 47.3985 91.5711 47.4366C91.528 47.4747 91.4723 47.4956 91.4147 47.4952C91.3881 47.4952 91.3617 47.4898 91.3373 47.4793C91.3128 47.4688 91.2907 47.4534 91.2724 47.4341C91.2541 47.4148 91.2399 47.3919 91.2307 47.3669C91.2215 47.3419 91.2176 47.3153 91.2191 47.2887L91.6158 41.6142Z" fill="#263238"/>
<path d="M93.6001 46.3428C93.6174 46.3241 93.6384 46.3091 93.6618 46.2988C93.6852 46.2886 93.7104 46.2833 93.736 46.2833C93.7615 46.2833 93.7867 46.2886 93.8101 46.2988C93.8335 46.3091 93.8545 46.3241 93.8718 46.3428C94.4109 46.8201 95.0983 47.0966 95.8177 47.1255C96.3044 47.1327 96.7818 46.9924 97.1874 46.7233C97.3465 46.6271 97.4817 46.4958 97.5824 46.3394C97.6832 46.1831 97.747 46.0058 97.7689 45.8211C97.782 45.6548 97.7482 45.4883 97.6713 45.3403C97.5945 45.1924 97.4776 45.0689 97.3341 44.984C96.9133 44.7291 96.4457 44.561 95.959 44.4894C95.4607 44.4169 94.9831 44.241 94.5567 43.9731C94.3751 43.8591 94.2283 43.6975 94.1325 43.5057C94.0366 43.314 93.9953 43.0996 94.0132 42.886C94.038 42.6543 94.115 42.4313 94.2383 42.2336C94.3616 42.036 94.5281 41.8688 94.7252 41.7446C95.1696 41.4505 95.6924 41.297 96.2253 41.3043C96.8948 41.3377 97.5363 41.5833 98.057 42.0055C98.0774 42.0209 98.0944 42.0403 98.1071 42.0624C98.1198 42.0846 98.128 42.1091 98.131 42.1344C98.1341 42.1598 98.132 42.1855 98.1248 42.2101C98.1177 42.2346 98.1058 42.2574 98.0896 42.2772C98.0609 42.3191 98.0171 42.3481 97.9674 42.3582C97.9178 42.3684 97.8661 42.3588 97.8233 42.3316C97.3631 41.9469 96.7915 41.7201 96.1927 41.6848C95.744 41.6797 95.3037 41.8063 94.9263 42.049C94.779 42.1391 94.6537 42.2611 94.5597 42.4059C94.4656 42.5507 94.4052 42.7148 94.3828 42.886C94.3756 43.0342 94.4094 43.1816 94.4803 43.3119C94.5513 43.4423 94.6566 43.5507 94.785 43.6252C95.1725 43.8653 95.6056 44.0226 96.0568 44.0872C96.5924 44.163 97.1067 44.348 97.5678 44.6307C97.7606 44.7519 97.917 44.923 98.0203 45.1259C98.1237 45.3288 98.1701 45.5558 98.1548 45.783C98.125 46.0306 98.0402 46.2684 97.9067 46.4791C97.7732 46.6897 97.5943 46.8679 97.383 47.0005C96.9101 47.3159 96.3535 47.4824 95.7851 47.4788C94.9816 47.4398 94.2152 47.1294 93.611 46.5983C93.5807 46.5631 93.5632 46.5188 93.5612 46.4725C93.5593 46.4261 93.5729 46.3805 93.6001 46.3428Z" fill="#263238"/>
<path d="M101.438 41.8207H99.6058C99.5782 41.8208 99.5508 41.8151 99.5256 41.804C99.5003 41.7928 99.4776 41.7764 99.4592 41.7559C99.4407 41.7353 99.4268 41.7111 99.4183 41.6848C99.4099 41.6585 99.4071 41.6307 99.4101 41.6032C99.4143 41.547 99.4396 41.4944 99.4809 41.4561C99.5223 41.4178 99.5766 41.3966 99.633 41.3967H103.72C103.747 41.3958 103.774 41.4007 103.799 41.4109C103.824 41.4211 103.846 41.4365 103.865 41.456C103.883 41.4755 103.897 41.4987 103.906 41.5241C103.915 41.5495 103.918 41.5765 103.916 41.6032C103.913 41.661 103.889 41.7155 103.847 41.7558C103.806 41.7962 103.751 41.8193 103.693 41.8207H101.856L101.476 47.256C101.47 47.3117 101.445 47.3636 101.403 47.4017C101.362 47.4398 101.309 47.4614 101.253 47.4625C101.226 47.4625 101.2 47.4571 101.175 47.4466C101.151 47.4361 101.129 47.4207 101.11 47.4014C101.092 47.3821 101.078 47.3592 101.069 47.3342C101.06 47.3092 101.056 47.2825 101.057 47.256L101.438 41.8207Z" fill="#263238"/>
<path d="M110.216 28.9282H50.9329L52.1938 10.8558H111.477L110.216 28.9282Z" fill="#C7C7C7"/>
<path d="M100.655 0.968994H63.8471L61.5371 10.8504H102.133L100.655 0.968994ZM82.0282 8.07836C81.7486 8.08254 81.4713 8.0279 81.2142 7.91798C80.9571 7.80806 80.726 7.64532 80.5358 7.44032C80.3457 7.23531 80.2007 6.99262 80.1104 6.728C80.0202 6.46337 79.9865 6.18272 80.0117 5.90424C80.0589 5.31815 80.3229 4.77068 80.752 4.36869C81.1811 3.9667 81.7446 3.73904 82.3326 3.73012C82.6121 3.72594 82.8895 3.78058 83.1466 3.8905C83.4036 4.00042 83.6348 4.16316 83.8249 4.36816C84.0151 4.57317 84.16 4.81586 84.2503 5.08048C84.3406 5.34511 84.3742 5.62577 84.349 5.90424C84.3042 6.49124 84.041 7.04012 83.6114 7.4426C83.1817 7.84507 82.6168 8.07191 82.0282 8.07836Z" fill="#C7C7C7"/>
<path d="M102.133 10.8504H61.5371L62.0589 8.63824H101.802L102.133 10.8504Z" fill="#A6A6A6"/>
</svg>
