<svg width="20" height="20" viewBox="0 0 20 20" fill="none" xmlns="http://www.w3.org/2000/svg">
<path d="M10.0549 6.11108C7.88824 6.11108 6.16602 7.83331 6.16602 9.99997C6.16602 12.1666 7.88824 13.8889 10.0549 13.8889C12.2216 13.8889 13.9438 12.1666 13.9438 9.99997C13.9438 7.83331 12.2216 6.11108 10.0549 6.11108ZM10.0549 12.7778C8.49935 12.7778 7.27713 11.5555 7.27713 9.99997C7.27713 8.44442 8.49935 7.2222 10.0549 7.2222C11.6105 7.2222 12.8327 8.44442 12.8327 9.99997C12.8327 11.5555 11.6105 12.7778 10.0549 12.7778Z" fill="#252525"/>
<path d="M18.2222 8.16664L16.6666 7.66664L16.3333 6.83331L17.1111 5.38886C17.2778 5.05553 17.2222 4.61108 16.9444 4.33331L15.6111 2.99997C15.3333 2.7222 14.8889 2.66664 14.5555 2.83331L13.1111 3.61108L12.2778 3.27775L11.7778 1.7222C11.6666 1.38886 11.3333 1.11108 10.9444 1.11108H9.05553C8.66664 1.11108 8.33331 1.38886 8.27775 1.77775L7.77775 3.33331C7.44442 3.38886 7.16664 3.49997 6.88886 3.66664L5.44442 2.88886C5.11108 2.7222 4.66664 2.77775 4.38886 3.05553L3.05553 4.38886C2.77775 4.66664 2.7222 5.11108 2.88886 5.44442L3.61108 6.83331C3.49997 7.11108 3.38886 7.44442 3.27775 7.7222L1.7222 8.2222C1.38886 8.33331 1.11108 8.66664 1.11108 9.05553V10.9444C1.11108 11.3333 1.38886 11.6666 1.77775 11.7778L3.33331 12.2778L3.66664 13.1111L2.88886 14.5555C2.7222 14.8889 2.77775 15.3333 3.05553 15.6111L4.38886 16.9444C4.66664 17.2222 5.11108 17.2778 5.44442 17.1111L6.88886 16.3333L7.7222 16.6666L8.2222 18.2778C8.33331 18.6111 8.66664 18.8889 9.05553 18.8889H10.9444C11.3333 18.8889 11.6666 18.6111 11.7778 18.2778L12.2778 16.6666L13.1111 16.3333L14.5555 17.1111C14.8889 17.2778 15.3333 17.2222 15.6111 16.9444L16.9444 15.6111C17.2222 15.3333 17.2778 14.8889 17.1111 14.5555L16.3333 13.1111L16.6666 12.2778L18.2778 11.7778C18.6111 11.6666 18.8889 11.3333 18.8889 10.9444V9.05553C18.8889 8.66664 18.6111 8.27775 18.2222 8.16664V8.16664ZM17.7778 10.7778L15.7778 11.3889L15.7222 11.6666L15.2222 12.8333L15.0555 13.1111L16.0555 14.9444L14.9444 16.0555L13.1111 15.0555L12.8333 15.2222C12.4444 15.4444 12.0555 15.6111 11.6666 15.7222L11.3889 15.7778L10.7778 17.7778H9.2222L8.61108 15.7778L8.33331 15.7222L7.16664 15.2222L6.88886 15.0555L5.05553 16.0555L3.94442 14.9444L4.94442 13.1111L4.77775 12.8333C4.55553 12.4444 4.38886 12.0555 4.27775 11.6666L4.2222 11.3889L2.2222 10.7778V9.2222L4.11108 8.66664L4.2222 8.38886C4.33331 7.94442 4.49997 7.55553 4.7222 7.16664L4.88886 6.88886L3.94442 5.05553L5.05553 3.94442L6.83331 4.94442L7.11108 4.77775C7.49997 4.55553 7.88886 4.38886 8.33331 4.27775L8.61108 4.16664L9.2222 2.2222H10.7778L11.3889 4.16664L11.6666 4.27775C12.0555 4.38886 12.4444 4.55553 12.8333 4.77775L13.1111 4.94442L14.9444 3.94442L16.0555 5.05553L15.0555 6.88886L15.2222 7.16664C15.4444 7.55553 15.6111 7.94442 15.7222 8.33331L15.7778 8.61108L17.7778 9.2222V10.7778V10.7778Z" fill="#252525"/>
</svg>
